<svg aria-hidden="true" style="position: absolute; width: 0; height: 0; overflow: hidden;" version="1.1" xmlns="http://www.w3.org/2000/svg" xmlns:xlink="http://www.w3.org/1999/xlink">
<defs>
<symbol id="icon-logo" viewBox="0 0 51 32">
<path d="M16.171 19.749c0-6.613 0-13.104 0-19.643 1.029 0 2.053-0.053 3.067 0.021 0.667 0.048 0.891 0.592 0.891 1.216 0 1.76 0 3.525 0 5.285 0 3.861 0 7.717 0 11.579 0 1.2-0.347 1.541-1.563 1.547-0.779 0-1.557-0.005-2.395-0.005z"></path>
<path d="M35.216 14.384c-0.56 0.224-1.029 0.411-1.541 0.613-0.901-2.069-1.787-4.101-2.736-6.272-0.581 1.333-1.099 2.539-1.643 3.728-0.123 0.267-0.331 0.512-0.549 0.709-0.464 0.411-0.667 0.88-0.677 1.52-0.011 0.496-0.181 1.029-0.421 1.472-0.411 0.763-0.912 1.483-1.413 2.192-0.123 0.176-0.384 0.256-0.581 0.379-0.032-0.219-0.117-0.443-0.085-0.651 0.405-2.475 1.531-4.688 2.512-6.96 0.352-0.821 0.736-1.627 1.045-2.459 0.085-0.235 0.059-0.603-0.075-0.816-0.731-1.179-0.368-2.549 0.885-3.163 0.72-0.352 0.805-0.805 0.272-1.397-0.261-0.288-0.101-2.784 0.197-3.029 0.48-0.4 1.291-0.128 1.349 0.501 0.069 0.752 0.064 1.52 0.005 2.272-0.021 0.293-0.304 0.565-0.389 0.864-0.096 0.363 0.069 0.576 0.453 0.741 1.392 0.603 1.755 1.968 0.96 3.269-0.117 0.192-0.117 0.549-0.027 0.763 0.789 1.904 1.616 3.776 2.459 5.723z"></path>
<path d="M22.789 15.061c-0.208-1.419-0.555-2.832-0.597-4.251-0.091-3.275-0.021-6.555-0.037-9.829 0-0.592 0.144-0.944 0.816-0.928 0.704 0.016 0.869 0.165 0.869 0.939 0.005 3.547 0.059 7.088-0.032 10.635-0.032 1.157-0.453 2.299-0.699 3.451-0.107-0.005-0.213-0.011-0.32-0.016z"></path>
<path d="M35.675 15.451c0.347 0.779 0.667 1.461 0.949 2.155 0.176 0.437 0.123 0.869-0.347 1.083-0.485 0.219-0.933 0.091-1.173-0.421-0.331-0.704-0.624-1.419-0.965-2.208 0.507-0.203 0.992-0.395 1.536-0.608z"></path>
<path d="M0 26.251h1.104c0.56 0 0.843 0.272 0.843 0.816v4.053c0 0.549-0.283 0.821-0.843 0.821h-1.104v-5.691zM1.339 31.029v-3.861c-0.011-0.251-0.117-0.373-0.315-0.373h-0.405v4.608h0.405c0.208 0 0.315-0.128 0.315-0.373z"></path>
<path d="M4.411 26.251v5.691h-0.619v-5.691h0.619z"></path>
<path d="M8.128 28.896v2.363c0 0.197-0.075 0.368-0.219 0.512s-0.315 0.213-0.517 0.213h-0.384c-0.197 0-0.373-0.069-0.528-0.213s-0.229-0.309-0.229-0.512v-4.32c0-0.203 0.075-0.379 0.229-0.517s0.331-0.208 0.528-0.208h0.384c0.197 0 0.373 0.075 0.517 0.219s0.219 0.315 0.219 0.507v0.725l-0.608 0.352v-0.981c0-0.085-0.032-0.155-0.101-0.219-0.064-0.059-0.144-0.091-0.224-0.091-0.096 0-0.171 0.032-0.235 0.091-0.059 0.059-0.091 0.133-0.091 0.219v4.133c0 0.096 0.032 0.171 0.096 0.224s0.139 0.085 0.229 0.085c0.091 0 0.165-0.032 0.229-0.096s0.096-0.133 0.096-0.213v-1.728c-0.037-0.027-0.080-0.069-0.117-0.123l-0.357-0.416h1.083v-0.005z"></path>
<path d="M10.592 26.251v5.691h-0.619v-5.691h0.619z"></path>
<path d="M13.68 26.848v5.093h-0.613v-5.093h-0.96v-0.608h2.539v0.608h-0.965z"></path>
<path d="M18.331 31.941h-0.677l-0.197-1.445-0.672 0.011-0.197 1.44h-0.672l0.907-5.691h0.608c0.101 0.635 0.251 1.579 0.448 2.843 0.192 1.253 0.347 2.208 0.453 2.843zM17.365 29.819l-0.24-1.808-0.251 1.808h0.491z"></path>
<path d="M21.659 31.941h-1.728v-5.691h0.603v5.109h1.392l-0.267 0.581z"></path>
<path d="M27.237 29.904v2.048h-0.613v-5.733h1.115c0.197 0 0.373 0.069 0.528 0.213s0.229 0.304 0.229 0.496v1.68c0 0.368-0.117 0.624-0.352 0.773-0.112 0.064-0.261 0.155-0.459 0.256-0.192 0.107-0.341 0.192-0.448 0.267zM27.888 28.64v-1.515c-0.005-0.096-0.037-0.165-0.096-0.219-0.059-0.048-0.133-0.075-0.229-0.075h-0.325v2.411l0.517-0.293c0.091-0.048 0.133-0.155 0.133-0.309z"></path>
<path d="M32.416 31.952h-0.613l-0.624-2.331c-0.032 0.021-0.085 0.053-0.149 0.085-0.064 0.037-0.117 0.064-0.149 0.085v2.155h-0.613v-5.723h1.115c0.203 0 0.384 0.069 0.533 0.208s0.224 0.304 0.224 0.501v1.563c0 0.368-0.144 0.645-0.432 0.832l0.709 2.624zM31.515 28.507v-1.408c-0.005-0.192-0.112-0.293-0.325-0.293h-0.315v2.304c0.16-0.085 0.331-0.181 0.507-0.299 0.091-0.059 0.133-0.16 0.133-0.304z"></path>
<path d="M34.768 26.219h0.475c0.192 0.016 0.368 0.091 0.517 0.224 0.144 0.144 0.219 0.309 0.219 0.501v4.325c0 0.192-0.075 0.363-0.224 0.501-0.149 0.144-0.32 0.213-0.507 0.213h-0.475c-0.203-0.005-0.384-0.075-0.533-0.213-0.149-0.133-0.224-0.304-0.224-0.501v-4.325c0-0.192 0.075-0.363 0.224-0.507 0.139-0.149 0.32-0.219 0.528-0.219zM34.944 31.477h0.091c0.096-0.005 0.171-0.037 0.235-0.096 0.059-0.059 0.091-0.133 0.091-0.219v-4.096c0-0.101-0.032-0.181-0.096-0.245s-0.155-0.096-0.272-0.096c-0.117 0-0.208 0.037-0.272 0.101-0.064 0.069-0.101 0.149-0.101 0.235v4.096c0 0.096 0.032 0.171 0.096 0.229s0.139 0.091 0.229 0.091z"></path>
<path d="M38.507 31.477h0.085c0.101-0.005 0.181-0.037 0.24-0.091s0.091-0.128 0.091-0.224v-4.928h0.613v5.035c0 0.192-0.075 0.363-0.224 0.501-0.149 0.144-0.32 0.213-0.507 0.213h-0.475c-0.213 0-0.389-0.069-0.539-0.203s-0.219-0.304-0.219-0.512v-0.533l0.608-0.331v0.757c0 0.096 0.032 0.171 0.096 0.229 0.064 0.053 0.139 0.085 0.229 0.085z"></path>
<path d="M43.264 26.235l-0.325 0.581h-0.939v1.84h0.949l-0.325 0.581h-0.624v2.112h1.264l-0.325 0.581h-1.557v-5.696h1.883z"></path>
<path d="M46.731 29.915v1.349c0 0.192-0.075 0.363-0.219 0.507-0.149 0.144-0.32 0.219-0.512 0.219h-0.384c-0.203 0-0.384-0.069-0.533-0.213s-0.224-0.309-0.224-0.512v-4.32c0-0.203 0.075-0.379 0.229-0.517s0.331-0.208 0.528-0.208h0.384c0.197 0 0.373 0.075 0.517 0.219s0.219 0.315 0.219 0.507v0.997c-0.075 0.037-0.176 0.096-0.309 0.171s-0.235 0.133-0.309 0.181v-1.259c0-0.085-0.032-0.149-0.096-0.203s-0.139-0.080-0.219-0.080c-0.091 0-0.165 0.027-0.229 0.080s-0.096 0.123-0.096 0.203v4.133c0 0.096 0.032 0.171 0.091 0.224s0.139 0.085 0.235 0.085c0.085 0 0.155-0.032 0.219-0.091s0.096-0.133 0.096-0.219v-0.896c0.357-0.213 0.56-0.331 0.613-0.357z"></path>
<path d="M49.819 26.848v5.093h-0.613v-5.093h-0.955v-0.608h2.539v0.608h-0.971z"></path>
</symbol>
<symbol id="icon-arrow-left" viewBox="0 0 64 32">
<path d="M64 16c0-0.982-0.796-1.778-1.778-1.778h-56.889c-0.982 0-1.778 0.796-1.778 1.778s0.796 1.778 1.778 1.778h56.889c0.982 0 1.778-0.796 1.778-1.778z"></path>
<path d="M19.035 2.298c-0.694-0.694-1.82-0.694-2.514 0l-13.702 13.702 13.702 13.701c0.694 0.694 1.82 0.694 2.514 0s0.694-1.82 0-2.514l-11.187-11.187 11.187-11.187c0.694-0.694 0.694-1.82 0-2.514z"></path>
</symbol>
<symbol id="icon-arrow-right" viewBox="0 0 68 32">
<path d="M3.325 16c0-0.982 0.796-1.778 1.778-1.778h56.889c0.982 0 1.778 0.796 1.778 1.778s-0.796 1.778-1.778 1.778h-56.889c-0.982 0-1.778-0.796-1.778-1.778z"></path>
<path d="M48.291 2.298c0.694-0.694 1.82-0.694 2.514 0l13.701 13.702-13.701 13.701c-0.694 0.694-1.82 0.694-2.514 0s-0.694-1.82 0-2.514l11.187-11.187-11.187-11.187c-0.694-0.694-0.694-1.82 0-2.514z"></path>
</symbol>
<symbol id="icon-geoposition" viewBox="0 0 32 32">
<path fill="none" stroke="#fff" style="stroke: var(--color2, #fff)" stroke-linejoin="round" stroke-linecap="round" stroke-miterlimit="4" stroke-width="1.3333" d="M26.667 13.818c0 7.636-10.667 14.182-10.667 14.182s-10.667-6.545-10.667-14.182c0-5.422 4.776-9.818 10.667-9.818s10.667 4.396 10.667 9.818v0z"></path>
<path fill="none" stroke="#fff" style="stroke: var(--color2, #fff)" stroke-linejoin="round" stroke-linecap="round" stroke-miterlimit="4" stroke-width="1.3333" d="M16 18.667c2.209 0 4-1.791 4-4s-1.791-4-4-4-4 1.791-4 4c0 2.209 1.791 4 4 4z"></path>
</symbol>
<symbol id="icon-mail" viewBox="0 0 47 32">
<path fill="none" stroke="#fff" style="stroke: var(--color3, #fff)" stroke-linejoin="miter" stroke-linecap="butt" stroke-miterlimit="4" stroke-width="2.3273" d="M23.678 17.925l-0-0-0.013 0.009c-0.081 0.055-0.198 0.094-0.325 0.094h-0.010c-0.185 0-0.303-0.063-0.342-0.095l-0.002-0.002-19.788-16.767h40.25l-19.771 16.761zM29.192 18.878l14.477 11.958h-40.807l14.509-12.047 2.891 2.451c0.852 0.717 1.947 1.096 3.076 1.096s2.223-0.381 3.076-1.101l0.003-0.002 2.775-2.355zM14.051 15.975l-12.887 10.702v-21.622l12.887 10.92zM45.382 5.146v21.547l-12.868-10.631 12.868-10.916z"></path>
</symbol>
<symbol id="icon-tel" viewBox="0 0 32 32">
<path fill="none" stroke="#fff" style="stroke: var(--color2, #fff)" stroke-linejoin="round" stroke-linecap="round" stroke-miterlimit="4" stroke-width="1.3333" d="M26.666 21.337v3.218c0.002 0.604-0.25 1.181-0.695 1.589s-1.042 0.61-1.643 0.556c-3.301-0.359-6.471-1.487-9.257-3.293-2.592-1.647-4.789-3.844-6.436-6.436-1.813-2.798-2.941-5.984-3.293-9.3-0.054-0.6 0.146-1.195 0.552-1.639s0.98-0.698 1.582-0.699h3.218c1.077-0.011 1.995 0.779 2.145 1.845 0.136 1.030 0.388 2.041 0.751 3.014 0.295 0.784 0.106 1.668-0.483 2.263l-1.362 1.362c1.527 2.685 3.75 4.909 6.436 6.436l1.362-1.362c0.595-0.589 1.479-0.777 2.263-0.483 0.973 0.363 1.984 0.615 3.014 0.751 1.079 0.152 1.872 1.088 1.845 2.177z"></path>
</symbol>
<symbol id="icon-facebook" viewBox="0 0 17 32">
<path d="M10.336 31.988h-6.89v-15.99h-3.444v-5.512h3.444v-3.308c0-4.495 1.945-7.171 7.466-7.171h4.598v5.512h-2.872c-2.152 0-2.294 0.771-2.294 2.21l-0.008 2.757h5.208l-0.61 5.512h-4.598v15.99z"></path>
</symbol>
<symbol id="icon-Linked-In" viewBox="0 0 32 32">
<path d="M29.619 30.421h-27.238c-1.306 0-2.363-0.926-2.363-2.069v-24.701c0-1.141 1.058-2.067 2.363-2.067h27.238c1.304 0 2.362 0.926 2.362 2.067v24.701c0 1.142-1.058 2.069-2.362 2.069zM5.557 25.67h4.707v-13.019h-4.707v13.019zM7.942 6.376c-1.611 0-2.662 0.971-2.662 2.25 0 1.248 1.021 2.25 2.6 2.25h0.030c1.642 0 2.662-1.002 2.662-2.25-0.029-1.278-1.021-2.25-2.63-2.25zM27.237 18.206c0-4-2.323-5.861-5.419-5.861-2.499 0-3.616 1.262-4.242 2.15v-1.845h-4.707c0.062 1.222 0 13.019 0 13.019h4.707v-7.27c0-0.387 0.030-0.778 0.155-1.054 0.339-0.778 1.115-1.582 2.414-1.582 1.704 0 2.384 1.194 2.384 2.944v6.963h4.707v-7.464zM17.544 14.539c0.010-0.014 0.022-0.029 0.032-0.043v0.043h-0.032z"></path>
</symbol>
<symbol id="icon-twitter" viewBox="0 0 41 32">
<path d="M39.544 3.569c-1.455 0.606-3.019 1.011-4.659 1.195 1.675-0.941 2.961-2.432 3.567-4.205-1.57 0.87-3.305 1.502-5.154 1.845-1.478-1.48-3.588-2.402-5.92-2.402-4.48 0-8.115 3.405-8.115 7.603 0 0.597 0.072 1.178 0.211 1.734-6.743-0.318-12.721-3.345-16.723-7.944-0.698 1.124-1.097 2.428-1.097 3.823 0 2.635 1.432 4.966 3.608 6.328-1.329-0.041-2.579-0.382-3.674-0.952 0 0.034 0 0.062 0 0.098 0 3.684 2.795 6.756 6.507 7.454-0.68 0.173-1.399 0.264-2.136 0.264-0.523 0-1.032-0.045-1.527-0.132 1.032 3.017 4.028 5.218 7.578 5.28-2.776 2.039-6.274 3.253-10.076 3.253-0.655 0-1.301-0.036-1.935-0.105 3.59 2.155 7.855 3.416 12.437 3.416 14.923 0 23.083-11.588 23.083-21.634 0-0.331-0.009-0.657-0.024-0.984 1.585-1.073 2.961-2.411 4.049-3.934z"></path>
</symbol>
<symbol id="icon-pininterest" viewBox="0 0 24 32">
<path  d="M12.504 0c-8.312 0-12.502 5.932-12.502 10.88 0 2.995 1.139 5.659 3.582 6.653 0.401 0.163 0.76 0.005 0.876-0.436 0.081-0.305 0.273-1.076 0.357-1.398 0.118-0.436 0.072-0.589-0.251-0.97-0.706-0.827-1.155-1.898-1.155-3.416 0-4.401 3.308-8.34 8.613-8.34 4.697 0 7.277 2.858 7.277 6.673 0 5.022-2.232 9.26-5.546 9.26-1.829 0-3.198-1.507-2.76-3.355 0.527-2.205 1.544-4.586 1.544-6.179 0-1.425-0.768-2.614-2.36-2.614-1.869 0-3.372 1.927-3.372 4.507 0 1.645 0.557 2.757 0.557 2.757s-1.915 8.074-2.25 9.489c-0.669 2.816-0.099 6.269-0.052 6.619 0.029 0.205 0.295 0.254 0.416 0.099 0.172-0.226 2.4-2.963 3.158-5.699 0.214-0.775 1.229-4.787 1.229-4.787 0.608 1.154 2.385 2.171 4.273 2.171 5.624 0 9.438-5.105 9.438-11.936 0-5.165-4.394-9.977-11.074-9.977z"></path>
</symbol>
<symbol id="icon-person" viewBox="0 0 32 32">
<path d="M16 16c2.947 0 5.333-2.387 5.333-5.333s-2.387-5.333-5.333-5.333c-2.947 0-5.333 2.387-5.333 5.333s2.387 5.333 5.333 5.333zM16 18.667c-3.56 0-10.667 1.787-10.667 5.333v1.333c0 0.733 0.6 1.333 1.333 1.333h18.667c0.733 0 1.333-0.6 1.333-1.333v-1.333c0-3.547-7.107-5.333-10.667-5.333z"></path>
</symbol>
<symbol id="icon-phone" viewBox="0 0 24 32">
<path d="M19.635 18.487l-2.451-0.28c-0.589-0.067-1.167 0.135-1.582 0.55l-1.775 1.775c-2.731-1.389-4.969-3.618-6.359-6.359l1.785-1.785c0.415-0.415 0.618-0.994 0.55-1.582l-0.28-2.432c-0.116-0.975-0.936-1.708-1.92-1.708h-1.669c-1.090 0-1.997 0.907-1.93 1.997 0.511 8.24 7.102 14.821 15.332 15.332 1.090 0.068 1.997-0.839 1.997-1.93v-1.669c0.010-0.975-0.724-1.795-1.698-1.911z"></path>
</symbol>
<symbol id="icon-email" viewBox="0 0 24 32">
<path d="M20 8h-16c-1.1 0-1.99 0.9-1.99 2l-0.010 12c0 1.1 0.9 2 2 2h16c1.1 0 2-0.9 2-2v-12c0-1.1-0.9-2-2-2zM19.6 12.25l-7.070 4.42c-0.32 0.2-0.74 0.2-1.060 0l-7.070-4.42c-0.25-0.16-0.4-0.43-0.4-0.72 0-0.67 0.73-1.070 1.3-0.72l6.7 4.19 6.7-4.19c0.57-0.35 1.3 0.050 1.3 0.72 0 0.29-0.15 0.56-0.4 0.72z"></path>
</symbol>
<symbol id="icon-check" viewBox="0 0 32 32">
<path fill="#fff" d="M22.921 8.979c0.329-0.289 0.766-0.449 1.22-0.445s0.889 0.169 1.212 0.462c0.324 0.293 0.512 0.691 0.524 1.11s-0.153 0.825-0.459 1.134l-9.31 10.748c-0.16 0.159-0.353 0.287-0.568 0.376s-0.447 0.136-0.682 0.14-0.469-0.036-0.687-0.117c-0.218-0.081-0.416-0.202-0.583-0.356l-6.174-5.699c-0.172-0.148-0.31-0.326-0.405-0.524s-0.147-0.412-0.151-0.629c-0.004-0.217 0.039-0.432 0.127-0.633s0.219-0.384 0.385-0.537c0.166-0.153 0.364-0.274 0.582-0.356s0.451-0.121 0.686-0.117c0.235 0.004 0.467 0.051 0.681 0.14s0.408 0.216 0.568 0.374l4.886 4.508 8.104-9.531c0.015-0.017 0.030-0.032 0.047-0.047h-0.002z"></path>
<path fill="none" stroke-linejoin="miter" stroke-linecap="butt" stroke-miterlimit="4" stroke-width="2" d="M4 1h24c1.657 0 3 1.343 3 3v24c0 1.657-1.343 3-3 3h-24c-1.657 0-3-1.343-3-3v-24c0-1.657 1.343-3 3-3z"></path>
</symbol>
<symbol id="icon-cart" viewBox="0 0 32 32">
<path d="M12 29c0 1.657-1.343 3-3 3s-3-1.343-3-3c0-1.657 1.343-3 3-3s3 1.343 3 3z"></path>
<path d="M32 29c0 1.657-1.343 3-3 3s-3-1.343-3-3c0-1.657 1.343-3 3-3s3 1.343 3 3z"></path>
<path d="M32 16v-12h-24c0-1.105-0.895-2-2-2h-6v2h4l1.502 12.877c-0.915 0.733-1.502 1.859-1.502 3.123 0 2.209 1.791 4 4 4h24v-2h-24c-1.105 0-2-0.895-2-2 0-0.007 0-0.014 0-0.020l26-3.98z"></path>
</symbol>
</defs>
</svg>
